<?xml version="1.0" encoding="UTF-8"?>
<svg xmlns="http://www.w3.org/2000/svg" version="1.1" viewBox="0 0 595.3 209.3">
  <!-- Generator: Adobe Illustrator 29.0.0, SVG Export Plug-In . SVG Version: 2.1.0 Build 186)  -->
  <defs>
    <style>
      .st0 {
        fill: #1d1d1b;
      }

      .st1 {
        fill: #676766;
      }

      .st2 {
        fill: #2f3a40;
      }

      .st3, .st4 {
        fill: #fff;
      }

      .st5 {
        fill: #e8e1cf;
      }

      .st6 {
        fill: none;
      }

      .st4 {
        stroke: #1d1d1b;
        stroke-miterlimit: 10;
      }

      .st7 {
        display: none;
      }

      .st8 {
        opacity: .4;
      }

      .st9 {
        fill: #aa4b31;
      }
    </style>
  </defs>
  <g id="Capa_1" class="st8">
    <path class="st6" d="M595.5,26.2"/>
    <line class="st1" x1="584.8" y1="26.2" x2="594.5" y2="26.2"/>
    <line class="st2" x1="583.7" y1="26.2" x2="584.8" y2="26.2"/>
    <line class="st9" x1="582.6" y1="26.2" x2="583.7" y2="26.2"/>
    <line class="st2" x1="581.6" y1="26.2" x2="582.6" y2="26.2"/>
    <line class="st2" x1="594.5" y1="26.2" x2="595.5" y2="26.2"/>
    <line class="st5" x1="585.9" y1="26.2" x2="586.9" y2="26.2"/>
    <line class="st5" x1="593.4" y1="26.2" x2="592.3" y2="26.2"/>
    <line class="st3" x1="590.2" y1="26.2" x2="589.1" y2="26.2"/>
    <line class="st6" x1="595.5" y1="0" x2="595.5" y2="26.2"/>
    <rect class="st1" x="584.8" y="0" width="9.7" height="26.2"/>
    <polyline class="st0" points="584.8 0 584.8 26.2 583.7 26.2 583.7 0"/>
    <polyline class="st3" points="583.7 0 583.7 26.2 582.6 26.2 582.6 0"/>
    <polyline class="st0" points="582.6 0 582.6 26.2 581.6 26.2 581.6 0"/>
    <polyline class="st0" points="595.5 0 595.5 26.2 594.5 26.2 594.5 0"/>
    <rect class="st5" x="588" y=".5" width="3.2" height="1"/>
    <rect class="st5" x="585.9" y="13.1" width="1.1" height="4.2"/>
    <rect class="st5" x="586.9" y="17.3" width="1.1" height="4.2"/>
    <rect class="st5" x="588" y="21.5" width="1.1" height="4.2"/>
    <rect class="st5" x="592.3" y="13.1" width="1.1" height="4.2"/>
    <rect class="st5" x="591.2" y="17.3" width="1.1" height="4.2"/>
    <rect class="st3" x="589.1" y="13.1" width="1.1" height="2.1"/>
    <rect class="st5" x="590.2" y="21.5" width="1.1" height="4.2"/>
    <rect class="st5" x="588" y="24.6" width="3.2" height="1"/>
    <rect class="st5" x="592.3" y="8.9" width="1.1" height="4.2"/>
    <rect class="st5" x="591.2" y="4.7" width="1.1" height="4.2"/>
    <rect class="st5" x="590.2" y=".5" width="1.1" height="4.2"/>
    <rect class="st5" x="585.9" y="8.9" width="1.1" height="4.2"/>
    <rect class="st5" x="586.9" y="4.7" width="1.1" height="4.2"/>
    <rect class="st3" x="589.1" y="11" width="1.1" height="2.1"/>
    <rect class="st5" x="588" y=".5" width="1.1" height="4.2"/>
    <rect class="st3" x="585.9" y="22.5" width="1.1" height="3.7"/>
    <rect class="st3" x="592.3" y="22.5" width="1.1" height="3.7"/>
    <rect class="st3" x="585.9" y="0" width="1.1" height="3.7"/>
    <rect class="st3" x="592.3" y="0" width="1.1" height="3.7"/>
    <path class="st6" d="M595.5,52.3"/>
    <line class="st1" x1="584.8" y1="52.3" x2="594.5" y2="52.3"/>
    <line class="st2" x1="583.7" y1="52.3" x2="584.8" y2="52.3"/>
    <line class="st9" x1="582.6" y1="52.3" x2="583.7" y2="52.3"/>
    <line class="st2" x1="581.6" y1="52.3" x2="582.6" y2="52.3"/>
    <line class="st2" x1="594.5" y1="52.3" x2="595.5" y2="52.3"/>
    <line class="st5" x1="585.9" y1="52.3" x2="586.9" y2="52.3"/>
    <line class="st5" x1="593.4" y1="52.3" x2="592.3" y2="52.3"/>
    <line class="st3" x1="590.2" y1="52.3" x2="589.1" y2="52.3"/>
    <line class="st6" x1="595.5" y1="26.2" x2="595.5" y2="52.3"/>
    <polyline class="st1" points="594.5 26.2 594.5 52.3 584.8 52.3 584.8 26.2"/>
    <polyline class="st0" points="584.8 26.2 584.8 52.3 583.7 52.3 583.7 26.2"/>
    <polyline class="st3" points="583.7 26.2 583.7 52.3 582.6 52.3 582.6 26.2"/>
    <polyline class="st0" points="582.6 26.2 582.6 52.3 581.6 52.3 581.6 26.2"/>
    <polyline class="st0" points="595.5 26.2 595.5 52.3 594.5 52.3 594.5 26.2"/>
    <rect class="st5" x="588" y="26.7" width="3.2" height="1"/>
    <rect class="st5" x="585.9" y="39.3" width="1.1" height="4.2"/>
    <rect class="st5" x="586.9" y="43.4" width="1.1" height="4.2"/>
    <rect class="st5" x="588" y="47.6" width="1.1" height="4.2"/>
    <rect class="st5" x="592.3" y="39.3" width="1.1" height="4.2"/>
    <rect class="st5" x="591.2" y="43.4" width="1.1" height="4.2"/>
    <rect class="st3" x="589.1" y="39.3" width="1.1" height="2.1"/>
    <rect class="st5" x="590.2" y="47.6" width="1.1" height="4.2"/>
    <rect class="st5" x="588" y="50.8" width="3.2" height="1"/>
    <rect class="st5" x="592.3" y="35.1" width="1.1" height="4.2"/>
    <rect class="st5" x="591.2" y="30.9" width="1.1" height="4.2"/>
    <rect class="st5" x="590.2" y="26.7" width="1.1" height="4.2"/>
    <rect class="st5" x="585.9" y="35.1" width="1.1" height="4.2"/>
    <rect class="st5" x="586.9" y="30.9" width="1.1" height="4.2"/>
    <rect class="st3" x="589.1" y="37.2" width="1.1" height="2.1"/>
    <rect class="st5" x="588" y="26.7" width="1.1" height="4.2"/>
    <rect class="st3" x="585.9" y="48.7" width="1.1" height="3.7"/>
    <rect class="st3" x="592.3" y="48.7" width="1.1" height="3.7"/>
    <rect class="st3" x="585.9" y="26.2" width="1.1" height="3.7"/>
    <rect class="st3" x="592.3" y="26.2" width="1.1" height="3.7"/>
    <path class="st6" d="M595.5,78.5"/>
    <line class="st1" x1="584.8" y1="78.5" x2="594.5" y2="78.5"/>
    <line class="st2" x1="583.7" y1="78.5" x2="584.8" y2="78.5"/>
    <line class="st9" x1="582.6" y1="78.5" x2="583.7" y2="78.5"/>
    <line class="st2" x1="581.6" y1="78.5" x2="582.6" y2="78.5"/>
    <line class="st2" x1="594.5" y1="78.5" x2="595.5" y2="78.5"/>
    <line class="st5" x1="585.9" y1="78.5" x2="586.9" y2="78.5"/>
    <line class="st5" x1="593.4" y1="78.5" x2="592.3" y2="78.5"/>
    <line class="st3" x1="590.2" y1="78.5" x2="589.1" y2="78.5"/>
    <line class="st6" x1="595.5" y1="52.3" x2="595.5" y2="78.5"/>
    <rect class="st1" x="584.8" y="52.3" width="9.7" height="26.2"/>
    <polyline class="st0" points="584.8 52.3 584.8 78.5 583.7 78.5 583.7 52.3"/>
    <polyline class="st3" points="583.7 52.3 583.7 78.5 582.6 78.5 582.6 52.3"/>
    <polyline class="st0" points="582.6 52.3 582.6 78.5 581.6 78.5 581.6 52.3"/>
    <polyline class="st0" points="595.5 52.3 595.5 78.5 594.5 78.5 594.5 52.3"/>
    <rect class="st5" x="588" y="52.9" width="3.2" height="1"/>
    <rect class="st5" x="585.9" y="65.4" width="1.1" height="4.2"/>
    <rect class="st5" x="586.9" y="69.6" width="1.1" height="4.2"/>
    <rect class="st5" x="588" y="73.8" width="1.1" height="4.2"/>
    <rect class="st5" x="592.3" y="65.4" width="1.1" height="4.2"/>
    <rect class="st5" x="591.2" y="69.6" width="1.1" height="4.2"/>
    <rect class="st3" x="589.1" y="65.4" width="1.1" height="2.1"/>
    <rect class="st5" x="590.2" y="73.8" width="1.1" height="4.2"/>
    <rect class="st5" x="588" y="76.9" width="3.2" height="1"/>
    <rect class="st5" x="592.3" y="61.2" width="1.1" height="4.2"/>
    <rect class="st5" x="591.2" y="57" width="1.1" height="4.2"/>
    <rect class="st5" x="590.2" y="52.9" width="1.1" height="4.2"/>
    <rect class="st5" x="585.9" y="61.2" width="1.1" height="4.2"/>
    <rect class="st5" x="586.9" y="57" width="1.1" height="4.2"/>
    <rect class="st3" x="589.1" y="63.3" width="1.1" height="2.1"/>
    <rect class="st5" x="588" y="52.9" width="1.1" height="4.2"/>
    <rect class="st3" x="585.9" y="74.8" width="1.1" height="3.7"/>
    <rect class="st3" x="592.3" y="74.8" width="1.1" height="3.7"/>
    <rect class="st3" x="585.9" y="52.3" width="1.1" height="3.7"/>
    <rect class="st3" x="592.3" y="52.3" width="1.1" height="3.7"/>
    <path class="st6" d="M595.5,104.7"/>
    <line class="st1" x1="584.8" y1="104.7" x2="594.5" y2="104.7"/>
    <line class="st2" x1="583.7" y1="104.7" x2="584.8" y2="104.7"/>
    <line class="st9" x1="582.6" y1="104.7" x2="583.7" y2="104.7"/>
    <line class="st2" x1="581.6" y1="104.7" x2="582.6" y2="104.7"/>
    <line class="st2" x1="594.5" y1="104.7" x2="595.5" y2="104.7"/>
    <line class="st5" x1="585.9" y1="104.7" x2="586.9" y2="104.7"/>
    <line class="st5" x1="593.4" y1="104.7" x2="592.3" y2="104.7"/>
    <line class="st3" x1="590.2" y1="104.7" x2="589.1" y2="104.7"/>
    <line class="st6" x1="595.5" y1="78.5" x2="595.5" y2="104.7"/>
    <polyline class="st1" points="594.5 78.5 594.5 104.7 584.8 104.7 584.8 78.5"/>
    <polyline class="st0" points="584.8 78.5 584.8 104.7 583.7 104.7 583.7 78.5"/>
    <polyline class="st3" points="583.7 78.5 583.7 104.7 582.6 104.7 582.6 78.5"/>
    <polyline class="st0" points="582.6 78.5 582.6 104.7 581.6 104.7 581.6 78.5"/>
    <polyline class="st0" points="595.5 78.5 595.5 104.7 594.5 104.7 594.5 78.5"/>
    <rect class="st5" x="588" y="79" width="3.2" height="1"/>
    <rect class="st5" x="585.9" y="91.6" width="1.1" height="4.2"/>
    <rect class="st5" x="586.9" y="95.8" width="1.1" height="4.2"/>
    <rect class="st5" x="588" y="100" width="1.1" height="4.2"/>
    <rect class="st5" x="592.3" y="91.6" width="1.1" height="4.2"/>
    <rect class="st5" x="591.2" y="95.8" width="1.1" height="4.2"/>
    <rect class="st3" x="589.1" y="91.6" width="1.1" height="2.1"/>
    <rect class="st5" x="590.2" y="100" width="1.1" height="4.2"/>
    <rect class="st5" x="588" y="103.1" width="3.2" height="1"/>
    <rect class="st5" x="592.3" y="87.4" width="1.1" height="4.2"/>
    <rect class="st5" x="591.2" y="83.2" width="1.1" height="4.2"/>
    <rect class="st5" x="590.2" y="79" width="1.1" height="4.2"/>
    <rect class="st5" x="585.9" y="87.4" width="1.1" height="4.2"/>
    <rect class="st5" x="586.9" y="83.2" width="1.1" height="4.2"/>
    <rect class="st3" x="589.1" y="89.5" width="1.1" height="2.1"/>
    <rect class="st5" x="588" y="79" width="1.1" height="4.2"/>
    <rect class="st3" x="585.9" y="101" width="1.1" height="3.7"/>
    <rect class="st3" x="592.3" y="101" width="1.1" height="3.7"/>
    <rect class="st3" x="585.9" y="78.5" width="1.1" height="3.7"/>
    <rect class="st3" x="592.3" y="78.5" width="1.1" height="3.7"/>
    <path class="st6" d="M595.5,130.8"/>
    <line class="st1" x1="584.8" y1="130.8" x2="594.5" y2="130.8"/>
    <line class="st2" x1="583.7" y1="130.8" x2="584.8" y2="130.8"/>
    <line class="st9" x1="582.6" y1="130.8" x2="583.7" y2="130.8"/>
    <line class="st2" x1="581.6" y1="130.8" x2="582.6" y2="130.8"/>
    <line class="st2" x1="594.5" y1="130.8" x2="595.5" y2="130.8"/>
    <line class="st5" x1="585.9" y1="130.8" x2="586.9" y2="130.8"/>
    <line class="st5" x1="593.4" y1="130.8" x2="592.3" y2="130.8"/>
    <line class="st3" x1="590.2" y1="130.8" x2="589.1" y2="130.8"/>
    <line class="st6" x1="595.5" y1="104.7" x2="595.5" y2="130.8"/>
    <rect class="st1" x="584.8" y="104.7" width="9.7" height="26.2"/>
    <polyline class="st0" points="584.8 104.7 584.8 130.8 583.7 130.8 583.7 104.7"/>
    <polyline class="st3" points="583.7 104.7 583.7 130.8 582.6 130.8 582.6 104.7"/>
    <polyline class="st0" points="582.6 104.7 582.6 130.8 581.6 130.8 581.6 104.7"/>
    <polyline class="st0" points="595.5 104.7 595.5 130.8 594.5 130.8 594.5 104.7"/>
    <rect class="st5" x="588" y="105.2" width="3.2" height="1"/>
    <rect class="st5" x="585.9" y="117.8" width="1.1" height="4.2"/>
    <rect class="st5" x="586.9" y="121.9" width="1.1" height="4.2"/>
    <rect class="st5" x="588" y="126.1" width="1.1" height="4.2"/>
    <rect class="st5" x="592.3" y="117.8" width="1.1" height="4.2"/>
    <rect class="st5" x="591.2" y="121.9" width="1.1" height="4.2"/>
    <rect class="st3" x="589.1" y="117.8" width="1.1" height="2.1"/>
    <rect class="st5" x="590.2" y="126.1" width="1.1" height="4.2"/>
    <rect class="st5" x="588" y="129.3" width="3.2" height="1"/>
    <rect class="st5" x="592.3" y="113.6" width="1.1" height="4.2"/>
    <rect class="st5" x="591.2" y="109.4" width="1.1" height="4.2"/>
    <rect class="st5" x="590.2" y="105.2" width="1.1" height="4.2"/>
    <rect class="st5" x="585.9" y="113.6" width="1.1" height="4.2"/>
    <rect class="st5" x="586.9" y="109.4" width="1.1" height="4.2"/>
    <rect class="st3" x="589.1" y="115.7" width="1.1" height="2.1"/>
    <rect class="st5" x="588" y="105.2" width="1.1" height="4.2"/>
    <rect class="st3" x="585.9" y="127.2" width="1.1" height="3.7"/>
    <rect class="st3" x="592.3" y="127.2" width="1.1" height="3.7"/>
    <rect class="st3" x="585.9" y="104.7" width="1.1" height="3.7"/>
    <rect class="st3" x="592.3" y="104.7" width="1.1" height="3.7"/>
    <path class="st6" d="M595.5,157"/>
    <line class="st1" x1="584.8" y1="157" x2="594.5" y2="157"/>
    <line class="st2" x1="583.7" y1="157" x2="584.8" y2="157"/>
    <line class="st9" x1="582.6" y1="157" x2="583.7" y2="157"/>
    <line class="st2" x1="581.6" y1="157" x2="582.6" y2="157"/>
    <line class="st2" x1="594.5" y1="157" x2="595.5" y2="157"/>
    <line class="st5" x1="585.9" y1="157" x2="586.9" y2="157"/>
    <line class="st5" x1="593.4" y1="157" x2="592.3" y2="157"/>
    <line class="st3" x1="590.2" y1="157" x2="589.1" y2="157"/>
    <line class="st6" x1="595.5" y1="130.8" x2="595.5" y2="157"/>
    <polyline class="st1" points="594.5 130.8 594.5 157 584.8 157 584.8 130.8"/>
    <polyline class="st0" points="584.8 130.8 584.8 157 583.7 157 583.7 130.8"/>
    <polyline class="st3" points="583.7 130.8 583.7 157 582.6 157 582.6 130.8"/>
    <polyline class="st0" points="582.6 130.8 582.6 157 581.6 157 581.6 130.8"/>
    <polyline class="st0" points="595.5 130.8 595.5 157 594.5 157 594.5 130.8"/>
    <rect class="st5" x="588" y="131.4" width="3.2" height="1"/>
    <rect class="st5" x="585.9" y="143.9" width="1.1" height="4.2"/>
    <rect class="st5" x="586.9" y="148.1" width="1.1" height="4.2"/>
    <rect class="st5" x="588" y="152.3" width="1.1" height="4.2"/>
    <rect class="st5" x="592.3" y="143.9" width="1.1" height="4.2"/>
    <rect class="st5" x="591.2" y="148.1" width="1.1" height="4.2"/>
    <rect class="st3" x="589.1" y="143.9" width="1.1" height="2.1"/>
    <rect class="st5" x="590.2" y="152.3" width="1.1" height="4.2"/>
    <rect class="st5" x="588" y="155.4" width="3.2" height="1"/>
    <rect class="st5" x="592.3" y="139.7" width="1.1" height="4.2"/>
    <rect class="st5" x="591.2" y="135.6" width="1.1" height="4.2"/>
    <rect class="st5" x="590.2" y="131.4" width="1.1" height="4.2"/>
    <rect class="st5" x="585.9" y="139.7" width="1.1" height="4.2"/>
    <rect class="st5" x="586.9" y="135.6" width="1.1" height="4.2"/>
    <rect class="st3" x="589.1" y="141.8" width="1.1" height="2.1"/>
    <rect class="st5" x="588" y="131.4" width="1.1" height="4.2"/>
    <rect class="st3" x="585.9" y="153.3" width="1.1" height="3.7"/>
    <rect class="st3" x="592.3" y="153.3" width="1.1" height="3.7"/>
    <rect class="st3" x="585.9" y="130.8" width="1.1" height="3.7"/>
    <rect class="st3" x="592.3" y="130.8" width="1.1" height="3.7"/>
    <path class="st6" d="M595.5,183.2"/>
    <line class="st1" x1="584.8" y1="183.2" x2="594.5" y2="183.2"/>
    <line class="st2" x1="583.7" y1="183.2" x2="584.8" y2="183.2"/>
    <line class="st9" x1="582.6" y1="183.2" x2="583.7" y2="183.2"/>
    <line class="st2" x1="581.6" y1="183.2" x2="582.6" y2="183.2"/>
    <line class="st2" x1="594.5" y1="183.2" x2="595.5" y2="183.2"/>
    <line class="st5" x1="585.9" y1="183.2" x2="586.9" y2="183.2"/>
    <line class="st5" x1="593.4" y1="183.2" x2="592.3" y2="183.2"/>
    <line class="st3" x1="590.2" y1="183.2" x2="589.1" y2="183.2"/>
    <line class="st6" x1="595.5" y1="157" x2="595.5" y2="183.2"/>
    <rect class="st1" x="584.8" y="157" width="9.7" height="26.2"/>
    <polyline class="st0" points="584.8 157 584.8 183.2 583.7 183.2 583.7 157"/>
    <polyline class="st3" points="583.7 157 583.7 183.2 582.6 183.2 582.6 157"/>
    <polyline class="st0" points="582.6 157 582.6 183.2 581.6 183.2 581.6 157"/>
    <polyline class="st0" points="595.5 157 595.5 183.2 594.5 183.2 594.5 157"/>
    <rect class="st5" x="588" y="157.5" width="3.2" height="1"/>
    <rect class="st5" x="585.9" y="170.1" width="1.1" height="4.2"/>
    <rect class="st5" x="586.9" y="174.3" width="1.1" height="4.2"/>
    <rect class="st5" x="588" y="178.5" width="1.1" height="4.2"/>
    <rect class="st5" x="592.3" y="170.1" width="1.1" height="4.2"/>
    <rect class="st5" x="591.2" y="174.3" width="1.1" height="4.2"/>
    <rect class="st3" x="589.1" y="170.1" width="1.1" height="2.1"/>
    <rect class="st5" x="590.2" y="178.5" width="1.1" height="4.2"/>
    <rect class="st5" x="588" y="181.6" width="3.2" height="1"/>
    <rect class="st5" x="592.3" y="165.9" width="1.1" height="4.2"/>
    <rect class="st5" x="591.2" y="161.7" width="1.1" height="4.2"/>
    <rect class="st5" x="590.2" y="157.5" width="1.1" height="4.2"/>
    <rect class="st5" x="585.9" y="165.9" width="1.1" height="4.2"/>
    <rect class="st5" x="586.9" y="161.7" width="1.1" height="4.2"/>
    <rect class="st3" x="589.1" y="168" width="1.1" height="2.1"/>
    <rect class="st5" x="588" y="157.5" width="1.1" height="4.2"/>
    <rect class="st3" x="585.9" y="179.5" width="1.1" height="3.7"/>
    <rect class="st3" x="592.3" y="179.5" width="1.1" height="3.7"/>
    <rect class="st3" x="585.9" y="157" width="1.1" height="3.7"/>
    <rect class="st3" x="592.3" y="157" width="1.1" height="3.7"/>
    <path class="st6" d="M595.5,209.3"/>
    <line class="st1" x1="584.8" y1="209.3" x2="594.5" y2="209.3"/>
    <line class="st2" x1="583.7" y1="209.3" x2="584.8" y2="209.3"/>
    <line class="st9" x1="582.6" y1="209.3" x2="583.7" y2="209.3"/>
    <line class="st2" x1="581.6" y1="209.3" x2="582.6" y2="209.3"/>
    <line class="st2" x1="594.5" y1="209.3" x2="595.5" y2="209.3"/>
    <line class="st5" x1="585.9" y1="209.3" x2="586.9" y2="209.3"/>
    <line class="st5" x1="593.4" y1="209.3" x2="592.3" y2="209.3"/>
    <line class="st3" x1="590.2" y1="209.3" x2="589.1" y2="209.3"/>
    <line class="st6" x1="595.5" y1="183.2" x2="595.5" y2="209.3"/>
    <polyline class="st1" points="594.5 183.2 594.5 209.3 584.8 209.3 584.8 183.2"/>
    <polyline class="st0" points="584.8 183.2 584.8 209.3 583.7 209.3 583.7 183.2"/>
    <polyline class="st3" points="583.7 183.2 583.7 209.3 582.6 209.3 582.6 183.2"/>
    <polyline class="st0" points="582.6 183.2 582.6 209.3 581.6 209.3 581.6 183.2"/>
    <polyline class="st0" points="595.5 183.2 595.5 209.3 594.5 209.3 594.5 183.2"/>
    <rect class="st5" x="588" y="183.7" width="3.2" height="1"/>
    <rect class="st5" x="585.9" y="196.3" width="1.1" height="4.2"/>
    <rect class="st5" x="586.9" y="200.4" width="1.1" height="4.2"/>
    <rect class="st5" x="588" y="204.6" width="1.1" height="4.2"/>
    <rect class="st5" x="592.3" y="196.3" width="1.1" height="4.2"/>
    <rect class="st5" x="591.2" y="200.4" width="1.1" height="4.2"/>
    <rect class="st3" x="589.1" y="196.3" width="1.1" height="2.1"/>
    <rect class="st5" x="590.2" y="204.6" width="1.1" height="4.2"/>
    <rect class="st5" x="588" y="207.8" width="3.2" height="1"/>
    <rect class="st5" x="592.3" y="192.1" width="1.1" height="4.2"/>
    <rect class="st5" x="591.2" y="187.9" width="1.1" height="4.2"/>
    <rect class="st5" x="590.2" y="183.7" width="1.1" height="4.2"/>
    <rect class="st5" x="585.9" y="192.1" width="1.1" height="4.2"/>
    <rect class="st5" x="586.9" y="187.9" width="1.1" height="4.2"/>
    <rect class="st3" x="589.1" y="194.2" width="1.1" height="2.1"/>
    <rect class="st5" x="588" y="183.7" width="1.1" height="4.2"/>
    <rect class="st3" x="585.9" y="205.7" width="1.1" height="3.7"/>
    <rect class="st3" x="592.3" y="205.7" width="1.1" height="3.7"/>
    <rect class="st3" x="585.9" y="183.2" width="1.1" height="3.7"/>
    <rect class="st3" x="592.3" y="183.2" width="1.1" height="3.7"/>
  </g>
  <g id="Capa_3" class="st7">
    <rect class="st4" x="261.1" width="73" height="209.3"/>
  </g>
</svg>