<?xml version="1.0" encoding="UTF-8"?>
<svg xmlns="http://www.w3.org/2000/svg" version="1.1" viewBox="0 0 1920 1080">
  <!-- Generator: Adobe Illustrator 29.0.0, SVG Export Plug-In . SVG Version: 2.1.0 Build 186)  -->
  <defs>
    <style>
      .st0 {
        fill: none;
      }

      .st1 {
        fill: #333;
      }

      .st2 {
        opacity: .1;
      }

      .st3 {
        opacity: .5;
      }
    </style>
  </defs>
  <g id="Capa_1">
    <g id="Capa_11" data-name="Capa_1" class="st3">
      <g class="st2">
        <path class="st0" d="M1787.9,1024.9c.8-.7-1.3-5.7-2.3-6.7-2.8-2.8-17.6-1.4-15.5,5.7,1.6,5.3,13.9-.8,17.7.9h.1Z"/>
        <path class="st0" d="M1837,909.5h14.8c2.3-2.5-9.2-21.5-8.9-27.4.4-6,15.6-26.4,14.2-27.7-3.9-1.3-17.2-1.1-19.3,2-.8,1.3-.2,6.6-1.6,9.9-2.3,5.5-9.1,12.9-10.4,18.2-.7,3.1,9.5,24.5,11.2,24.9h0Z"/>
        <path class="st0" d="M1470.9,1010c6.5-7.5,7.9-11.1-.2-18.9-25.5,27.9-46.5,58.2-65.1,90.8h13.4l10-18.3c13.3-20,26.6-35.9,41.9-53.6h0Z"/>
        <path class="st0" d="M1213.1,984.2c-2.5.7-16.4,26.3-3.7,26.5,2.8-4,15.5-30,3.7-26.5Z"/>
        <path class="st0" d="M1698.9,851.8l37.2-10.2,5.6-45.9-56.8,14.2c-2.3,2.3,11.8,36.8,14.2,41.9h-.2Z"/>
        <path class="st0" d="M1231.6,1021.3l10.8,1,10.5-22.3-14.2-5.3c1.5,9.9-7.2,16.8-7.1,26.6h0Z"/>
        <path class="st0" d="M1728.6,1014.9c-25.2-23.8-57.6-20.5-89.1-20.1-43.2.6-107.4.7-143.1,27.6-21.9,16.4-32,35.3-35.7,59.7h298.7c-.2-.8-.3-1.6-.5-2.4-4.4-21.1-14.5-49.7-30.4-64.7h0Z"/>
        <path class="st0" d="M1801.3,1065.8c-8.5,4.5-26.8,2.6-18.7,16.2h5.2l15.9-5.8-2.4-10.4h0Z"/>
        <path class="st0" d="M1821,1039c10.8-2.8,21.2-9.4,32.6-7.8,2.2-1.9,7.5-24.4,6.7-28.1-2-9.5-23.9-30.1-24.5-39.6-.6-9.4,17.3-31.6,15.9-32.8h-29.3c-3.7-3.6-5.9-8.6-8.3-13.1-2.2-4.2-11.6-24-12.1-27-.6-4-.5-9.5.7-13.4.8-2.8,11.7-17.6,9.9-19.4-16.4-1-31.9,2.8-48,5.3,1.1,4.3,6.7,3.4,9.4,5.3,20.7,14.7,16.8,50.5-10.3,53.4-32.8,3.5-46.6-32-22.3-52.5l-48,13.4c-1,4.1.8,2.9,2.3,4,11.8,9.2,23.4,17.1,14.5,34.8-14.4,28.7-54.2,10.5-48.4-16.3,1-4.5,7.3-7,2.3-10.1l-27.5,14.2c-1.9,2.8,9,9.4,10.6,12,10.8,17-7.5,36.8-26.1,29.1-10.5-4.4-10.1-11.3-13-20.8-.6-1.9,1.2-3.2-2.7-2.6l-18.7,13.3c31.3,10,6.3,48.5-13.2,29.1-4.1-4.1-3-7.4-3.5-12.5-.2-1.5,2.3-4.6-2-3.3-9.1,2.8-28,27.1-38.2,32l.8,3.5c3.7-2.2,8.3-2.9,12.5-3.6,41-6.6,128.1-13.7,166.1-.8,11.6,3.9,20.9,12.8,30.2,16.9-3.8,3.9,6.1,8.3,8.9,12,3.8,5.2,6.5,13.4,11.6,18.2,0-9.3-6.2-61.9,14.3-52.6,7.4,3.4,19.6,30,23,38.4,8.3,20.6,14.8,42.2,20.6,64.2h9.1l-8.3-39.6,1.9-3.5h.2l.3.3Z"/>
        <path class="st0" d="M1861.6,1042.7c-3.2,0-23.8,4.9-25.7,6.2-2.1,1.5-1.8,2.9-1.6,5.1.4,8.7,3.3,18.3,6,28h42l6.2-32.3c-1.3-1.6-23.6-7-26.9-7h0Z"/>
        <path class="st0" d="M1780.8,1056.1c4.7-1.1,10.4-4,15.8-4.7l-1.8-12.1-21.1,3.4c2,4.9,0,15.1,7.1,13.4h0Z"/>
        <path class="st0" d="M1867,882.8l10,24.6,21.1.2c-16.4-20.4-10.4-30.8,3.6-49.7-5.1-2.5-16.6-5.4-21.2-1.6-.2.2,1.2,2.8.3,4.6-3.8,7.3-9.5,14.7-13.7,21.9h-.1Z"/>
        <polygon class="st0" points="1132.2 1082 1225.8 1082 1141 1051.6 1132.2 1082"/>
        <path class="st0" d="M1180,998.2l10.7-24.9-10.4-3.4c-1.3,4.5-12.9,21.8-10.8,24.6l10.6,3.6h0Z"/>
        <path class="st0" d="M1269,992.1c5.3,3.7-11.8,30.6-14.2,36.4,8.7,2.2,17.6,8.4,26.6,8.9-5-9.1,3.2-21.8,8.2-30,14.2-23.8,31.2-34,55.8-45.5l-20.5-16.8c-22.4-29.6,6.7-67.5,39.1-71.2,46.3-5.3,85.2,35.7,72.9,81.9-4.4,16.5-24.9,34.7-42.7,33.8-12.1-.6-30.8-18.5-36.4-17.2-3.5.9-22.9,11.3-27.2,13.8-11.3,6.9-18.8,14.3-26.2,25.3-3.3,5-10.8,22-13.3,24-3.1,2.6-6.2,1.9-9.8,1.8,4,7.3,88.7,36.2,101.3,44.4,6.8-18.9,18.9-37.6,30.5-53.9,9.1-12.7,28.4-39.4,38.3-49.2,10.9-10.9,35.9-9.1,40.5,7.2l53.4-46.1c1.5-2.3-9.3-19.7-11.6-21.9-1.7-1.8-3.5-1-3.6-1.1,1.5,4.9,4.5,13.8,3.6,18.3-8,8.4-10.5,17.2-24.6,18-30.4,1.6-35.5-44.5-4.5-48.6,13.1-1.7,16.1,4.1,25.6,12.3-2.9-9.4-14.7-21.8-21.1-29.6l-32.3-42.6-19.5,15.2c10.3.8,10.4-8.7,21.3-4.4,3.3,1.4,10,7.2,9,11.5l3.5-1.8c7.4,16.8,2.1,37.5-17.4,40.4-16.9,2.5-29.6-13.9-26.6-30.3.9-4.9,4.4-7.4,4.9-12l-29.7,24.6h-2.7l-70.6-72.6c4.5,34.9-28.2,72.5-63.7,66.1l-41.1,52.1c-.7,2.3.4,3.6,2.6,2.6,7.3-3,7-18.1,22.8-14.2,4,4,4,12.1,1,16.8-1.5,2.3-20.1,20.9-22.5,22.3-10.5,6.4-25.2,6.4-27-8.1-1.9-15.3,8.4-31.3,16.9-43.3,9.6-13.6,21.9-25.8,31.9-39.2.6-1.5-.9-2.3-.9-2.7v-27.5c-2.6,1.9-6.1,5.3-8.2,7.9-19.4,23.1-33.7,48.1-48.7,72.9-2.4,4-23.3,34.6-21.4,36.5l78.3,34.7h0Z"/>
        <path class="st0" d="M1677,788.3l67.8-18,7.4-49.4-92.4,24.9c4.2,6,12.2,41.3,17.1,42.4h0Z"/>
        <path class="st0" d="M1442.5,843c9.3-7.8,18.2-18.9,29.6-24.5,6.4-3.2,7.6-4,14.2.6l76.9,100.8c1.9.3,6.5-2.4,8.3-3.6,7.2-4.5,15.5-11.7,23-16.2,25.9-15.3,53.6-27.4,81.1-39.4l-88.7-244.4c-17.2,6.5-34.7,12.9-51.3,20.6-63.9,29.8-135.1,75.1-185.7,124.4-2.2,2.1-8.5,3.2-9.6,9.1l80.9,87.4c3,.8,17.6-11.6,21.2-14.7h0Z"/>
        <path class="st0" d="M1755.6,697.6l18.1-127.6-53.4,7.1,7.9,97.8c-2.8,4.5-22.4,4.8-24.1,2.4l-8.7-94.9-28.5,8.2c4.2,25.7,15.5,54.5,17.6,80,1.6,20.1-7.9,11.1-22.1,14.4l-1.8-1.2-18.5-86.5-32.1,10,40.9,115.5,104.5-25.2h.2Z"/>
        <path class="st0" d="M1159.1,1016.4l-9.3,21.7,118.9,43.9h50.4c-51.6-21.5-102.4-45.6-154.7-64.9l-5.1-.7h-.2Z"/>
        <path class="st0" d="M1409.8,980c29.6-12.9,30-55.6,11.3-78.9-14.2-17.5-38.2-25.2-60.2-21.5-26.1,4.3-48.8,35.8-33,60.6,2.7,4.2,46.8,35.1,53.6,38.7,11.8,6.4,15.6,6.5,28.3,1.1h0Z"/>
        <path class="st0" d="M1305.4,858.8c2-1.3,2.2-2.9,3.2-3.7,8.6-7,20.3-20.2,20.8-31.9.6-14.9-11.5-6.1-18-2-5.6,3.6-16.2,12.3-19.8,19.5-8.4,17-7.2,31.3,13.8,18.1h0Z"/>
        <path class="st1" d="M1918,1071.7c-.2-.8-.2-1.7,0-2.4v-30.6c-1.7,4.7-3.2,8.7-4.5,11.5l-8.3,31.9h12.7v-10.4h.1Z"/>
        <path class="st1" d="M1504.6,904.2c-30.8,4-25.8,50.2,4.5,48.6,14-.7,16.6-9.6,24.6-18,1.1-4.5-2-13.4-3.6-18.3-9.5-8.2-12.5-14-25.6-12.3h0Z"/>
        <path class="st1" d="M1141,1051.6l84.7,30.4h42.9l-118.9-43.9,9.3-21.7,5.1.7c52.4,19.3,103.1,43.3,154.7,64.9h86.6c18.6-32.6,39.6-63,65.1-90.8,8.1,7.8,6.7,11.3.2,18.9-15.1,17.6-28.6,33.6-41.9,53.6l-10,18.3h41.8c3.8-24.4,13.9-43.2,35.7-59.7,35.7-26.8,99.8-27,143.1-27.6,31.4-.4,63.9-3.7,89.1,20.1,15.9,15,26,43.6,30.4,64.7.2.8.3,1.6.5,2.4h23c-8.1-13.6,10.2-11.7,18.7-16.2l2.4,10.4-15.9,5.8h30.5c-5.7-22-12.3-43.6-20.6-64.2-3.4-8.3-15.5-35.1-23-38.4-20.5-9.3-14.3,43.2-14.3,52.6-5-4.8-7.8-13-11.6-18.2-2.8-3.8-12.6-8.1-8.9-12-9.4-4.1-18.6-13-30.2-16.9-38-12.9-125-5.8-166.1.8-4.2.6-8.8,1.4-12.5,3.6l-.8-3.5c10.2-4.9,29.1-29.2,38.2-32,4.3-1.3,1.9,1.9,2,3.3.5,5.2-.6,8.4,3.5,12.5,19.5,19.3,44.4-19.1,13.2-29.1l18.7-13.3c3.9-.6,2.1.6,2.7,2.6,2.9,9.6,2.4,16.4,13,20.8,18.5,7.7,36.8-12.1,26.1-29.1-1.6-2.6-12.5-9.2-10.6-12l27.5-14.2c4.9,3.2-1.4,5.7-2.3,10.1-5.7,26.8,34,44.9,48.4,16.3,8.9-17.7-2.7-25.6-14.5-34.8-1.5-1.1-3.2,0-2.3-4l48-13.4c-24.5,20.4-10.6,55.9,22.3,52.5,27.1-2.8,31-38.7,10.3-53.4-2.7-1.9-8.3-1-9.4-5.3,16.1-2.5,31.5-6.3,48-5.3,1.9,1.8-9,16.7-9.9,19.4-1.2,3.9-1.4,9.4-.7,13.4.5,3,10,22.8,12.1,27,2.3,4.5,4.5,9.6,8.3,13.1h29.3c1.4,1.2-16.6,23.4-15.9,32.8.6,9.6,22.6,30.1,24.5,39.6.8,3.7-4.5,26.2-6.7,28.1-11.4-1.6-21.8,5-32.6,7.8l-1.9,3.5,8.3,39.6h12.7c-2.7-9.7-5.6-19.3-6-28,0-2.2-.4-3.6,1.6-5.1,1.9-1.4,22.5-6.2,25.7-6.2s25.7,5.4,26.9,7l-6.2,32.3h15.1c2.4-11.3,4.3-20.9,4.8-23.7,4-25.3-4.3-20.6-25.3-26.3,2.8-7.3,7.4-18.8,8.5-26.2,2-14.7-19.3-31.8-24.5-45.7,0-1.4,2.8-.6,3.6-2.1,5.1-9.1,8.3-20.2,15.9-28.2,7.5-3.6,26.6,1.4,37.7-1.5v-30.8c-2.8-4.9-5.2-9.5-5-12.1,0-1.5,2.5-4.9,5-8.4v-46.4l-56.3-4.9-63.1,5.5,14.2-99.5,24.4-1.4c34-16.8,22.9-59.2-13.6-62.7-.6-30,20.4-70.8,56.1-50.8,12.3,7,19.1,36.2,20,49.8l-1.5,2.1c-11.3-.2-29.2,10-31.7,21.6-3.1,14.2-.4,23.8,9.6,34.1,8.3,8.6,21.1,7.4,31.9,5.9l1.8,1.3,8.3,55.1v-73.3c-4.4.6-8.3,3.3-12.1,3.9-12.2,1.8-29.3-5.7-27.1-19.9,2.4-15.1,24.9-17.1,37-13.8,0-2.6.2-5.2-.2-7.8-4.5-37.4-15.7-87-65.2-76.2-36.8,8.1-40.1,53-43.1,84,13.2-2.8,30.8-2.4,36.4,12.5,4.8,13-14.8,22.9-26.5,21.1-5.2-.8-10.4-5.6-16.9-3.4l-18.1,118.8-22.8,5.6,38.1-270.3c39.8-6.8,80.2-4.5,120.5-1.9v-11.3c-5.7-.3-11.6-.6-17.3-.8-3.4-.2-74.6,0-78,0-320.4,9.9-602.1,233-704.8,528h14.3l8.8-30.4v.2l-.3-.3ZM1796.6,1051.3c-5.3.6-11.1,3.6-15.8,4.7-7.2,1.8-5.1-8.4-7.1-13.4l21.1-3.4,1.8,12.1h0ZM1785.6,1018.2c1,1,3.1,5.9,2.3,6.7-3.9-1.7-16.1,4.5-17.7-.9-2.2-7.2,12.6-8.6,15.5-5.7h-.1ZM1880.4,856.2c4.6-3.8,16.1-.8,21.2,1.6-14,18.9-20,29.3-3.6,49.7l-21.1-.2-10-24.6c4.2-7.2,9.9-14.6,13.7-21.9,1-1.9-.5-4.5-.3-4.6h.1ZM1825.9,884.6c1.3-5.3,8-12.7,10.4-18.2,1.5-3.4.8-8.6,1.6-9.9,2.1-3.2,15.4-3.3,19.3-2,1.4,1.3-13.8,21.7-14.2,27.7-.4,6.1,11.2,25,8.9,27.4h-14.8c-1.7-.3-11.9-21.8-11.2-24.9h0ZM1209.4,1010.7c-12.6-.2,1.2-25.7,3.7-26.5,11.7-3.5-.9,22.3-3.7,26.5ZM1242.5,1022.4l-10.8-1c-.2-9.8,8.7-16.8,7.1-26.6l14.2,5.3-10.5,22.3h0ZM1736.1,841.6l-37.2,10.2c-2.3-5.2-16.5-39.7-14.2-41.9l56.8-14.2-5.6,45.9h.2ZM1744.8,770.4l-67.8,18c-4.9-1.1-12.9-36.4-17.1-42.4l92.4-24.9-7.4,49.4h0ZM1642.2,597.4l18.5,86.5,1.8,1.2c14.1-3.3,23.7,5.7,22.1-14.4-2.1-25.5-13.4-54.3-17.6-80l28.5-8.2,8.7,94.9c1.7,2.3,21.4,2,24.1-2.4l-7.9-97.8,53.4-7.1-18.1,127.6-104.5,25.2-40.9-115.5,32.1-10h-.2ZM1350,761.2c50.6-49.2,121.8-94.6,185.7-124.4,16.7-7.8,34.2-14.2,51.3-20.6l88.7,244.4c-27.5,12.1-55.3,24.2-81.1,39.4-7.4,4.4-15.8,11.7-23,16.2-1.9,1.2-6.5,4-8.3,3.6l-76.9-100.8c-6.6-4.6-7.9-3.7-14.2-.6-11.5,5.6-20.3,16.8-29.6,24.5-3.7,3.1-18.2,15.5-21.2,14.7l-80.9-87.4c1.1-5.8,7.4-7,9.6-9.1h0ZM1291.7,840.6c3.6-7.3,14.2-15.9,19.8-19.5,6.5-4,18.5-12.9,18,2-.5,11.7-12.2,24.9-20.8,31.9-1.1.8-1.2,2.5-3.2,3.7-21,13.2-22.3-1.2-13.8-18.1h0ZM1212.2,920.9c15-24.9,29.2-49.9,48.7-72.9,2-2.4,5.5-6,8.2-7.9v27.5c0,.4,1.5,1.2.9,2.7-10,13.4-22.3,25.6-31.9,39.2-8.5,12-18.9,28-16.9,43.3,1.9,14.5,16.4,14.5,27,8.1,2.3-1.5,21.1-20.1,22.5-22.3,2.9-4.6,3-12.7-1-16.8-15.9-3.9-15.5,11.3-22.8,14.2-2.2.9-3.3-.4-2.6-2.6l41.1-52.1c35.5,6.3,68.3-31.2,63.7-66.1l70.6,72.5h2.7l29.7-24.6c-.6,4.6-4,7-4.9,12-3,16.3,9.6,32.8,26.6,30.3,19.5-2.9,24.9-23.5,17.4-40.4l-3.5,1.8c1.1-4.2-5.7-10.1-9-11.5-10.8-4.4-10.9,5.1-21.3,4.4l19.5-15.2,32.3,42.6c6.3,7.7,18.1,20.2,21.1,29.6.2.2,1.9-.6,3.6,1.1,2.3,2.3,13,19.7,11.6,21.9l-53.4,46.1c-4.6-16.4-29.6-18.1-40.5-7.2-9.9,9.8-29.2,36.6-38.3,49.2-11.7,16.4-23.7,35-30.5,53.9-12.6-8.2-97.2-37.2-101.3-44.4-9.1-.5-17.9-6.8-26.6-8.9,2.4-5.7,19.5-32.6,14.2-36.4l-78.3-34.7c-1.9-1.9,18.9-32.5,21.4-36.5h0ZM1180.3,970l10.4,3.4-10.7,24.9-10.6-3.6c-2-2.8,9.6-20.2,10.8-24.6h0Z"/>
        <path class="st1" d="M1291.2,1035.5c2.4-2,10-19,13.3-24,7.4-11,14.8-18.5,26.2-25.3,4.2-2.5,23.7-13,27.2-13.8,5.5-1.4,24.3,16.5,36.4,17.2,17.8,1,38.4-17.3,42.7-33.8,12.2-46.1-26.6-87-72.9-81.9-32.4,3.6-61.5,41.5-39.1,71.2l20.5,16.8c-24.6,11.4-41.6,21.7-55.8,45.5-4.9,8.3-13.2,20.9-8.2,30,3.6.2,6.7.7,9.8-1.8h0ZM1327.9,940.3c-15.9-24.9,6.9-56.3,33-60.6,21.9-3.6,46.1,4,60.2,21.5,18.7,23.2,18.3,65.9-11.3,78.9-12.6,5.5-16.4,5.3-28.3-1.1-6.8-3.6-50.9-34.5-53.6-38.7h0Z"/>
      </g>
    </g>
  </g>
  <g id="Capa_3">
    <rect class="st0" y="-4" width="1925.4" height="1089.1"/>
  </g>
</svg>